<svg width="150" height="20" viewBox="0 0 150 20" fill="none" xmlns="http://www.w3.org/2000/svg">
<path d="M4.43077 13.8044C4.88791 15.4571 6.12747 16.2835 8.14945 16.2835C9.45055 16.2835 10.4352 15.844 11.1033 14.9648L13.8462 16.5473C12.5451 18.4286 10.6286 19.3692 8.0967 19.3692C5.91648 19.3692 4.16703 18.7099 2.84835 17.3912C1.52967 16.0725 0.87033 14.411 0.87033 12.4066C0.87033 10.4198 1.52088 8.76703 2.82198 7.44835C4.12308 6.11209 5.79341 5.44396 7.83297 5.44396C9.76703 5.44396 11.3582 6.11209 12.6066 7.44835C13.8725 8.78461 14.5055 10.4374 14.5055 12.4066C14.5055 12.8462 14.4615 13.3121 14.3736 13.8044H4.43077ZM4.37802 11.167H11.1033C10.9099 10.2703 10.5055 9.6022 9.89011 9.16264C9.29231 8.72308 8.60659 8.5033 7.83297 8.5033C6.91868 8.5033 6.16264 8.74066 5.56484 9.21538C4.96703 9.67253 4.57143 10.3231 4.37802 11.167ZM25.5839 5.81319H28.9861V19H25.5839V17.5231C24.7575 18.7538 23.4476 19.3692 21.6542 19.3692C20.2124 19.3692 19.0168 18.8857 18.0674 17.9187C17.1355 16.9516 16.6696 15.6154 16.6696 13.9099V5.81319H20.0718V13.4879C20.0718 14.367 20.3091 15.044 20.7839 15.5187C21.2586 15.9758 21.8916 16.2044 22.6828 16.2044C23.5619 16.2044 24.2652 15.9319 24.7927 15.3868C25.3201 14.8418 25.5839 14.0242 25.5839 12.9341V5.81319ZM35.5043 8.08132C35.8207 7.23736 36.3394 6.60439 37.0603 6.18242C37.7988 5.76044 38.6163 5.54945 39.513 5.54945V9.34725C38.4757 9.22418 37.5438 9.43516 36.7174 9.98022C35.9087 10.5253 35.5043 11.4308 35.5043 12.6967V19H32.1021V5.81319H35.5043V8.08132ZM52.2486 17.3648C50.8948 18.7011 49.242 19.3692 47.2904 19.3692C45.3387 19.3692 43.686 18.7011 42.3321 17.3648C40.9959 16.011 40.3277 14.3582 40.3277 12.4066C40.3277 10.4549 40.9959 8.81099 42.3321 7.47472C43.686 6.12088 45.3387 5.44396 47.2904 5.44396C49.242 5.44396 50.8948 6.12088 52.2486 7.47472C53.6025 8.81099 54.2794 10.4549 54.2794 12.4066C54.2794 14.3582 53.6025 16.011 52.2486 17.3648ZM44.7321 15.0176C45.4179 15.7033 46.2706 16.0462 47.2904 16.0462C48.3102 16.0462 49.1629 15.7033 49.8486 15.0176C50.5343 14.3319 50.8772 13.4615 50.8772 12.4066C50.8772 11.3516 50.5343 10.4813 49.8486 9.7956C49.1629 9.10989 48.3102 8.76703 47.2904 8.76703C46.2706 8.76703 45.4179 9.10989 44.7321 9.7956C44.064 10.4813 43.7299 11.3516 43.7299 12.4066C43.7299 13.4615 44.064 14.3319 44.7321 15.0176ZM71.2574 5.44396C72.7695 5.44396 73.9739 5.93626 74.8706 6.92088C75.7849 7.90549 76.242 9.22418 76.242 10.8769V19H72.8398V11.1143C72.8398 10.3231 72.6464 9.70769 72.2596 9.26813C71.8728 8.82857 71.3277 8.60879 70.6245 8.60879C69.8508 8.60879 69.2442 8.86374 68.8047 9.37363C68.3827 9.88352 68.1717 10.622 68.1717 11.589V19H64.7695V11.1143C64.7695 10.3231 64.5761 9.70769 64.1893 9.26813C63.8025 8.82857 63.2574 8.60879 62.5541 8.60879C61.7981 8.60879 61.1915 8.86374 60.7343 9.37363C60.2948 9.88352 60.075 10.622 60.075 11.589V19H56.6728V5.81319H60.075V7.21099C60.8662 6.03297 62.0882 5.44396 63.7409 5.44396C65.3585 5.44396 66.5541 6.07692 67.3278 7.34286C68.2069 6.07692 69.5168 5.44396 71.2574 5.44396ZM89.1536 5.81319H92.5558V19H89.1536V17.444C88.1338 18.7275 86.7008 19.3692 84.8547 19.3692C83.0964 19.3692 81.5843 18.7011 80.3184 17.3648C79.0701 16.011 78.4459 14.3582 78.4459 12.4066C78.4459 10.4549 79.0701 8.81099 80.3184 7.47472C81.5843 6.12088 83.0964 5.44396 84.8547 5.44396C86.7008 5.44396 88.1338 6.08571 89.1536 7.36923V5.81319ZM82.8766 15.0967C83.5624 15.7824 84.4327 16.1253 85.4876 16.1253C86.5426 16.1253 87.4129 15.7824 88.0986 15.0967C88.8019 14.3934 89.1536 13.4967 89.1536 12.4066C89.1536 11.3165 88.8019 10.4286 88.0986 9.74286C87.4129 9.03956 86.5426 8.68791 85.4876 8.68791C84.4327 8.68791 83.5624 9.03956 82.8766 9.74286C82.1909 10.4286 81.8481 11.3165 81.8481 12.4066C81.8481 13.4967 82.1909 14.3934 82.8766 15.0967ZM103.184 9.08352H100.204V14.5692C100.204 15.0264 100.318 15.3604 100.546 15.5714C100.775 15.7824 101.109 15.9055 101.549 15.9407C101.988 15.9582 102.533 15.9495 103.184 15.9143V19C100.845 19.2637 99.1925 19.044 98.2255 18.3407C97.276 17.6374 96.8013 16.3802 96.8013 14.5692V9.08352H94.5068V5.81319H96.8013V3.14945L100.204 2.12088V5.81319H103.184V9.08352ZM126.729 8.02857C127.978 8.3978 128.989 9.04835 129.762 9.98022C130.553 10.8945 130.949 12.0022 130.949 13.3033C130.949 15.2022 130.307 16.6879 129.024 17.7604C127.758 18.833 126.202 19.3692 124.356 19.3692C122.914 19.3692 121.621 19.044 120.479 18.3934C119.353 17.7253 118.536 16.7495 118.026 15.4659L121.138 13.6725C121.595 15.0967 122.668 15.8088 124.356 15.8088C125.287 15.8088 126.008 15.589 126.518 15.1495C127.046 14.6923 127.309 14.0769 127.309 13.3033C127.309 12.5473 127.046 11.9407 126.518 11.4835C126.008 11.0264 125.287 10.7978 124.356 10.7978H123.564L122.167 8.68791L125.806 3.94066H118.58V0.53846H130.184V3.54505L126.729 8.02857ZM140.837 0.53846C143.369 0.53846 145.479 1.42637 147.167 3.2022C148.872 4.97802 149.725 7.16703 149.725 9.76923C149.725 12.3714 148.872 14.5604 147.167 16.3363C145.479 18.1121 143.369 19 140.837 19H133.505V0.53846H140.837ZM140.837 15.5187C142.437 15.5187 143.738 14.9912 144.74 13.9363C145.743 12.8637 146.244 11.4747 146.244 9.76923C146.244 8.06374 145.743 6.68352 144.74 5.62857C143.738 4.55604 142.437 4.01978 140.837 4.01978H137.145V15.5187H140.837Z" fill="#181A1F"/>
</svg>
